<svg width="15" height="15" viewBox="0 0 15 15" fill="none" xmlns="http://www.w3.org/2000/svg">
<path d="M12.4596 1.83366H11.043V1.12533C11.043 0.937464 10.9683 0.757296 10.8355 0.624458C10.7027 0.49162 10.5225 0.416992 10.3346 0.416992C10.1468 0.416992 9.96661 0.49162 9.83377 0.624458C9.70093 0.757296 9.6263 0.937464 9.6263 1.12533V1.83366H5.3763V1.12533C5.3763 0.937464 5.30167 0.757296 5.16884 0.624458C5.036 0.49162 4.85583 0.416992 4.66797 0.416992C4.48011 0.416992 4.29994 0.49162 4.1671 0.624458C4.03426 0.757296 3.95964 0.937464 3.95964 1.12533V1.83366H2.54297C1.97938 1.83366 1.43888 2.05754 1.04037 2.45606C0.641852 2.85457 0.417969 3.39507 0.417969 3.95866V12.4587C0.417969 13.0222 0.641852 13.5627 1.04037 13.9613C1.43888 14.3598 1.97938 14.5837 2.54297 14.5837H12.4596C13.0232 14.5837 13.5637 14.3598 13.9622 13.9613C14.3608 13.5627 14.5846 13.0222 14.5846 12.4587V3.95866C14.5846 3.39507 14.3608 2.85457 13.9622 2.45606C13.5637 2.05754 13.0232 1.83366 12.4596 1.83366ZM13.168 12.4587C13.168 12.6465 13.0933 12.8267 12.9605 12.9595C12.8277 13.0924 12.6475 13.167 12.4596 13.167H2.54297C2.35511 13.167 2.17494 13.0924 2.0421 12.9595C1.90926 12.8267 1.83464 12.6465 1.83464 12.4587V7.50033H13.168V12.4587ZM13.168 6.08366H1.83464V3.95866C1.83464 3.7708 1.90926 3.59063 2.0421 3.45779C2.17494 3.32495 2.35511 3.25033 2.54297 3.25033H3.95964V3.95866C3.95964 4.14652 4.03426 4.32669 4.1671 4.45953C4.29994 4.59236 4.48011 4.66699 4.66797 4.66699C4.85583 4.66699 5.036 4.59236 5.16884 4.45953C5.30167 4.32669 5.3763 4.14652 5.3763 3.95866V3.25033H9.6263V3.95866C9.6263 4.14652 9.70093 4.32669 9.83377 4.45953C9.96661 4.59236 10.1468 4.66699 10.3346 4.66699C10.5225 4.66699 10.7027 4.59236 10.8355 4.45953C10.9683 4.32669 11.043 4.14652 11.043 3.95866V3.25033H12.4596C12.6475 3.25033 12.8277 3.32495 12.9605 3.45779C13.0933 3.59063 13.168 3.7708 13.168 3.95866V6.08366Z" fill="#999999"/>
</svg>
