<svg width="390" height="306" viewBox="0 0 390 306" fill="none" xmlns="http://www.w3.org/2000/svg">
<path opacity="0.3" d="M187 259.056C254.223 259.056 308.719 211.573 308.719 152.999C308.719 94.4249 254.223 46.9414 187 46.9414C119.777 46.9414 65.2812 94.4249 65.2812 152.999C65.2812 211.573 119.777 259.056 187 259.056Z" fill="#036C37" fill-opacity="0.5"/>
<path d="M294.477 240.969H233.648V256.985H294.477V240.969Z" fill="#E6E6E6"/>
<path opacity="0.43" d="M281.181 225.309H220.352V241.325H281.181V225.309Z" fill="#E6E6E6"/>
<path d="M250.039 41.0039H141.609C138.296 41.0039 135.609 43.6902 135.609 47.0039V250.986C135.609 254.299 138.296 256.986 141.609 256.986H250.039C253.353 256.986 256.039 254.299 256.039 250.986V47.0039C256.039 43.6902 253.353 41.0039 250.039 41.0039Z" fill="#C9C9C9"/>
<path d="M245.261 65.6289H145.578V217.625H245.261V65.6289Z" fill="white"/>
<path opacity="0.56" d="M196.186 248.877C202.695 248.877 207.971 243.601 207.971 237.093C207.971 230.585 202.695 225.309 196.186 225.309C189.678 225.309 184.402 230.585 184.402 237.093C184.402 243.601 189.678 248.877 196.186 248.877Z" fill="white"/>
<path opacity="0.12" d="M219.41 49.4492H185.641V54.372H219.41V49.4492Z" fill="black"/>
<path d="M173.408 57.944C176.446 57.944 178.909 55.481 178.909 52.4427C178.909 49.4044 176.446 46.9414 173.408 46.9414C170.369 46.9414 167.906 49.4044 167.906 52.4427C167.906 55.481 170.369 57.944 173.408 57.944Z" fill="white"/>
<path d="M231.67 91.3281H163.685C160.871 91.3281 158.59 93.6094 158.59 96.4234V101.671C158.59 104.485 160.871 106.766 163.685 106.766H231.67C234.484 106.766 236.765 104.485 236.765 101.671V96.4234C236.765 93.6094 234.484 91.3281 231.67 91.3281Z" fill="#18565F"/>
<path d="M226.228 99.6619C226.228 99.6619 222.797 99.6619 222.31 107.498C221.823 115.334 222.31 241.478 222.31 252.247C222.31 263.016 206.374 264.995 206.374 264.995H158.578V107.498C158.578 99.1646 164.952 99.6619 164.952 99.6619H226.228Z" fill="#036C37"/>
<g opacity="0.5">
<path opacity="0.1" d="M184.697 111.172H166.285V115.831H184.697V111.172Z" fill="black"/>
<path opacity="0.1" d="M213.574 111.172H199.242V115.831H213.574V111.172Z" fill="black"/>
<path opacity="0.1" d="M190.544 123.492H166.285V128.151H190.544V123.492Z" fill="black"/>
<path opacity="0.1" d="M213.574 123.492H199.242V128.151H213.574V123.492Z" fill="black"/>
<path opacity="0.1" d="M186.534 135.805H166.285V140.464H186.534V135.805Z" fill="black"/>
<path opacity="0.1" d="M213.574 135.805H199.242V140.464H213.574V135.805Z" fill="black"/>
<path opacity="0.1" d="M190.544 148.117H166.285V152.776H190.544V148.117Z" fill="black"/>
<path opacity="0.1" d="M213.574 148.117H199.242V152.776H213.574V148.117Z" fill="black"/>
<path opacity="0.1" d="M182.495 160.43H166.285V165.089H182.495V160.43Z" fill="black"/>
<path opacity="0.1" d="M213.574 160.43H199.242V165.089H213.574V160.43Z" fill="black"/>
<path opacity="0.1" d="M192.594 172.75H166.285V177.409H192.594V172.75Z" fill="black"/>
<path opacity="0.1" d="M213.574 172.75H199.242V177.409H213.574V172.75Z" fill="black"/>
<path opacity="0.1" d="M186.534 185.062H166.285V189.721H186.534V185.062Z" fill="black"/>
<path opacity="0.1" d="M213.574 185.062H199.242V189.721H213.574V185.062Z" fill="black"/>
<path opacity="0.1" d="M178.414 197.375H166.285V202.034H178.414V197.375Z" fill="black"/>
<path opacity="0.1" d="M213.574 197.375H199.242V202.034H213.574V197.375Z" fill="black"/>
<path opacity="0.1" d="M187.448 209.688H166.285V214.346H187.448V209.688Z" fill="black"/>
<path opacity="0.1" d="M213.574 209.688H199.242V214.346H213.574V209.688Z" fill="black"/>
<path opacity="0.1" d="M182.495 209.426H166.285V214.085H182.495V209.426Z" fill="black"/>
<path opacity="0.1" d="M192.594 221.734H166.285V226.393H192.594V221.734Z" fill="black"/>
<path opacity="0.1" d="M213.574 221.734H199.242V226.393H213.574V221.734Z" fill="black"/>
<path opacity="0.1" d="M186.534 234.059H166.285V238.717H186.534V234.059Z" fill="black"/>
<path opacity="0.1" d="M213.574 234.059H199.242V238.717H213.574V234.059Z" fill="black"/>
<path opacity="0.1" d="M178.414 246.371H166.285V251.03H178.414V246.371Z" fill="black"/>
<path opacity="0.1" d="M213.574 246.371H199.242V251.03H213.574V246.371Z" fill="black"/>
</g>
<path d="M175.835 139.359H112.641C110.463 139.359 108.375 140.224 106.835 141.764C105.295 143.304 104.43 145.393 104.43 147.571V264.996H154.916C154.916 264.996 168.111 265.483 171.826 250.532C175.541 235.581 175.886 140.588 175.886 140.588" fill="#036C37"/>
<path opacity="0.44" d="M175.835 139.359H112.641C110.463 139.359 108.375 140.224 106.835 141.764C105.295 143.304 104.43 145.393 104.43 147.571V264.996H154.916C154.916 264.996 168.111 265.483 171.826 250.532C175.541 235.581 175.886 140.588 175.886 140.588" fill="white"/>
<path d="M142.634 253.109H79.5312C79.5678 255.511 80.2173 257.863 81.4181 259.943C82.6189 262.024 84.3312 263.762 86.3926 264.995H150.226C150.226 264.995 143.862 262.417 142.634 253.109Z" fill="#036C37"/>
<path d="M207.849 264.996C207.849 264.996 200.744 264.255 197.07 260.581C193.396 256.907 192.411 253.232 192.411 240.738V154.798C192.411 150.703 190.785 146.776 187.89 143.881C184.994 140.986 181.068 139.359 176.973 139.359H175.836C174.533 139.359 173.243 139.616 172.039 140.115C170.835 140.614 169.742 141.346 168.821 142.267C167.9 143.189 167.169 144.284 166.672 145.488C166.174 146.692 165.918 147.983 165.92 149.286V239.875C165.92 263.403 155.628 264.996 154.887 264.996H207.849Z" fill="#036C37"/>
<path opacity="0.1" d="M142.634 253.109H79.5312C79.5678 255.511 80.2173 257.863 81.4181 259.943C82.6189 262.024 84.3312 263.762 86.3926 264.995H150.226C150.226 264.995 143.862 262.417 142.634 253.109Z" fill="black"/>
<path opacity="0.1" d="M207.849 264.996C207.849 264.996 200.744 264.255 197.07 260.581C193.396 256.907 192.411 253.232 192.411 240.738V154.798C192.411 150.703 190.785 146.776 187.89 143.881C184.994 140.986 181.068 139.359 176.973 139.359H175.836C174.533 139.359 173.243 139.616 172.039 140.115C170.835 140.614 169.742 141.346 168.821 142.267C167.9 143.189 167.169 144.284 166.672 145.488C166.174 146.692 165.918 147.983 165.92 149.286V239.875C165.92 263.403 155.628 264.996 154.887 264.996H207.849Z" fill="black"/>
<path opacity="0.1" d="M129.369 154.918H110.957V159.577H129.369V154.918Z" fill="black"/>
<path opacity="0.1" d="M158.254 154.918H143.922V159.577H158.254V154.918Z" fill="black"/>
<path opacity="0.1" d="M135.216 167.23H110.957V171.889H135.216V167.23Z" fill="black"/>
<path opacity="0.1" d="M158.254 167.23H143.922V171.889H158.254V167.23Z" fill="black"/>
<path opacity="0.1" d="M131.206 179.551H110.957V184.21H131.206V179.551Z" fill="black"/>
<path opacity="0.1" d="M158.254 179.551H143.922V184.21H158.254V179.551Z" fill="black"/>
<path opacity="0.1" d="M135.216 191.863H110.957V196.522H135.216V191.863Z" fill="black"/>
<path opacity="0.1" d="M158.254 191.863H143.922V196.522H158.254V191.863Z" fill="black"/>
<path opacity="0.1" d="M127.167 204.176H110.957V208.835H127.167V204.176Z" fill="black"/>
<path opacity="0.1" d="M158.254 204.176H143.922V208.835H158.254V204.176Z" fill="black"/>
<path opacity="0.1" d="M131.206 217.207H110.957V221.866H131.206V217.207Z" fill="black"/>
<path opacity="0.1" d="M158.254 217.207H143.922V221.866H158.254V217.207Z" fill="black"/>
<path opacity="0.1" d="M123.086 229.52H110.957V234.178H123.086V229.52Z" fill="black"/>
<path opacity="0.1" d="M158.254 229.52H143.922V234.178H158.254V229.52Z" fill="black"/>
<path opacity="0.1" d="M132.12 241.832H110.957V246.491H132.12V241.832Z" fill="black"/>
<path opacity="0.1" d="M158.254 241.832H143.922V246.491H158.254V241.832Z" fill="black"/>
<path opacity="0.05" d="M153.059 65.0312H135.621V98.4146H153.059V65.0312Z" fill="black"/>
<path d="M148.185 61.3555H108.52C107.415 61.3555 106.52 62.2509 106.52 63.3555V92.7388C106.52 93.8434 107.415 94.7388 108.52 94.7388H148.185C149.289 94.7388 150.185 93.8434 150.185 92.7388V63.3555C150.185 62.2509 149.289 61.3555 148.185 61.3555Z" fill="#E6E6E6"/>
<path opacity="0.05" d="M256.041 139.379H226.809V198.899H256.041V139.379Z" fill="black"/>
<path d="M283.223 134.305H235.691C234.587 134.305 233.691 135.2 233.691 136.305V191.824C233.691 192.929 234.587 193.824 235.691 193.824H283.223C284.328 193.824 285.223 192.929 285.223 191.824V136.305C285.223 135.2 284.328 134.305 283.223 134.305Z" fill="#E6E6E6"/>
<path opacity="0.44" d="M278.583 141.996H240.328V155.577H278.583V141.996Z" fill="white"/>
<path d="M258.223 160.398H240.328V172.233H258.223V160.398Z" fill="#C9C9C9"/>
<path d="M278.582 160.398H260.688V172.233H278.582V160.398Z" fill="#C9C9C9"/>
<path d="M258.223 175.32H240.328V187.155H258.223V175.32Z" fill="#C9C9C9"/>
<path d="M278.582 175.32H260.688V187.155H278.582V175.32Z" fill="#C9C9C9"/>
<path d="M120.668 76.7031H114.934V86.7516H120.668V76.7031Z" fill="#2BC48A"/>
<path d="M131.227 74.1836H125.492V86.7493H131.227V74.1836Z" fill="#036C37"/>
<path d="M141.782 69.3438H136.047V86.751H141.782V69.3438Z" fill="#18565F"/>
<path opacity="0.58" d="M253.636 252.928C253.636 252.928 245.516 250.705 243.699 243.113C243.699 243.113 256.336 240.555 256.701 253.598L253.636 252.928Z" fill="#036C37"/>
<path opacity="0.73" d="M254.628 252.125C254.628 252.125 248.934 243.112 253.948 234.688C253.948 234.688 263.56 240.778 259.287 252.135L254.628 252.125Z" fill="#036C37"/>
<path d="M256.102 252.126C256.102 252.126 259.147 242.615 268.221 240.809C268.221 240.809 269.926 246.99 262.324 252.156L256.102 252.126Z" fill="#036C37"/>
<path d="M250.184 251.91L251.838 263.227L262.252 263.268L263.785 251.971L250.184 251.91Z" fill="#18565F"/>
</svg>
