<svg width="84" height="36" viewBox="0 0 84 36" fill="none" xmlns="http://www.w3.org/2000/svg">
<path d="M8.81005 26.5057H3.88209L3.06668 28.8633H0.460888L4.91023 16.4725H7.79964L12.249 28.8633H9.62547L8.81005 26.5057ZM8.13645 24.5203L6.34607 19.3442L4.5557 24.5203H8.13645ZM17.7587 18.8833C18.4914 18.8833 19.1355 19.031 19.6909 19.3264C20.2463 19.6101 20.6836 19.9823 21.0027 20.4432V19.0428H23.5021V28.9342C23.5021 29.8441 23.3189 30.6537 22.9526 31.3627C22.5862 32.0836 22.0367 32.6508 21.304 33.0645C20.5713 33.4899 19.685 33.7026 18.6451 33.7026C17.2506 33.7026 16.1043 33.3776 15.2061 32.7276C14.3198 32.0777 13.8175 31.1914 13.6994 30.0687H16.1633C16.2933 30.5178 16.5711 30.8723 16.9965 31.1323C17.4337 31.4041 17.9596 31.54 18.5741 31.54C19.295 31.54 19.88 31.3214 20.3291 30.8841C20.7781 30.4587 21.0027 29.8087 21.0027 28.9342V27.4097C20.6836 27.8706 20.2404 28.2547 19.6732 28.5619C19.1178 28.8692 18.4796 29.0228 17.7587 29.0228C16.9315 29.0228 16.1752 28.8101 15.4897 28.3847C14.8043 27.9592 14.2607 27.3624 13.8589 26.5943C13.4689 25.8143 13.2739 24.9221 13.2739 23.9176C13.2739 22.9249 13.4689 22.0445 13.8589 21.2764C14.2607 20.5082 14.7984 19.9173 15.472 19.5037C16.1574 19.0901 16.9197 18.8833 17.7587 18.8833ZM21.0027 23.9531C21.0027 23.3504 20.8845 22.8363 20.6481 22.4108C20.4118 21.9736 20.0927 21.6427 19.6909 21.4182C19.2891 21.1818 18.8578 21.0636 18.3969 21.0636C17.936 21.0636 17.5106 21.1759 17.1206 21.4004C16.7306 21.625 16.4115 21.9559 16.1633 22.3931C15.927 22.8186 15.8088 23.3267 15.8088 23.9176C15.8088 24.5085 15.927 25.0285 16.1633 25.4775C16.4115 25.9148 16.7306 26.2516 17.1206 26.4879C17.5224 26.7243 17.9478 26.8425 18.3969 26.8425C18.8578 26.8425 19.2891 26.7302 19.6909 26.5057C20.0927 26.2693 20.4118 25.9384 20.6481 25.513C20.8845 25.0757 21.0027 24.5558 21.0027 23.9531ZM28.4076 20.5673C28.7267 20.0473 29.1403 19.6396 29.6485 19.3442C30.1684 19.0487 30.7593 18.901 31.4211 18.901V21.5068H30.7652C29.9853 21.5068 29.3944 21.69 28.9926 22.0563C28.6026 22.4227 28.4076 23.0608 28.4076 23.9708V28.8633H25.9259V19.0428H28.4076V20.5673ZM34.3512 17.8729C33.914 17.8729 33.5476 17.737 33.2522 17.4652C32.9686 17.1815 32.8268 16.8329 32.8268 16.4193C32.8268 16.0057 32.9686 15.663 33.2522 15.3912C33.5476 15.1075 33.914 14.9657 34.3512 14.9657C34.7885 14.9657 35.1489 15.1075 35.4326 15.3912C35.728 15.663 35.8757 16.0057 35.8757 16.4193C35.8757 16.8329 35.728 17.1815 35.4326 17.4652C35.1489 17.737 34.7885 17.8729 34.3512 17.8729ZM35.5744 19.0428V28.8633H33.0927V19.0428H35.5744ZM51.6402 19.0428L48.7685 28.8633H46.0918L44.3015 22.0031L42.5111 28.8633H39.8167L36.9273 19.0428H39.4444L41.1816 26.5234L43.0606 19.0428H45.6841L47.5277 26.5057L49.2649 19.0428H51.6402ZM62.1121 23.7403C62.1121 24.0949 62.0885 24.4139 62.0412 24.6976H54.862C54.9211 25.4066 55.1693 25.9621 55.6065 26.3639C56.0438 26.7657 56.5815 26.9665 57.2196 26.9665C58.1414 26.9665 58.7973 26.5707 59.1873 25.7789H61.864C61.5803 26.7243 61.0367 27.5043 60.2331 28.1188C59.4295 28.7215 58.4428 29.0228 57.2728 29.0228C56.3274 29.0228 55.4765 28.816 54.7202 28.4024C53.9757 27.977 53.3907 27.3802 52.9653 26.612C52.5517 25.8439 52.3448 24.9576 52.3448 23.9531C52.3448 22.9367 52.5517 22.0445 52.9653 21.2764C53.3789 20.5082 53.958 19.9173 54.7025 19.5037C55.447 19.0901 56.3038 18.8833 57.2728 18.8833C58.2064 18.8833 59.0395 19.0842 59.7722 19.486C60.5167 19.8878 61.0899 20.4609 61.4917 21.2055C61.9053 21.9381 62.1121 22.7831 62.1121 23.7403ZM59.5418 23.0313C59.53 22.3931 59.2995 21.885 58.8505 21.5068C58.4014 21.1168 57.8519 20.9218 57.2019 20.9218C56.5874 20.9218 56.0674 21.1109 55.642 21.4891C55.2284 21.8554 54.9743 22.3695 54.8797 23.0313H59.5418ZM66.4053 15.7457V28.8633H63.9236V15.7457H66.4053ZM71.3389 15.7457V28.8633H68.8572V15.7457H71.3389ZM74.8899 28.9874C74.4408 28.9874 74.0685 28.8515 73.7731 28.5797C73.4895 28.296 73.3477 27.9474 73.3477 27.5338C73.3477 27.1202 73.4895 26.7775 73.7731 26.5057C74.0685 26.222 74.4408 26.0802 74.8899 26.0802C75.3271 26.0802 75.6876 26.222 75.9712 26.5057C76.2548 26.7775 76.3966 27.1202 76.3966 27.5338C76.3966 27.9474 76.2548 28.296 75.9712 28.5797C75.6876 28.8515 75.3271 28.9874 74.8899 28.9874Z" fill="#132427"/>
<path d="M82.8861 11.0168C83.5337 17.1013 57.3944 6.30218 43.5847 7.77195C29.775 9.24171 33.3437 20.7463 32.1984 16.4115C30.8219 9.87306 42.8992 4.13103 56.7089 2.66127C70.5186 1.1915 82.2385 4.93242 82.8861 11.0168Z" fill="#30C8A4"/>
</svg>
