<svg width="20" height="16" viewBox="0 0 20 16" fill="none" xmlns="http://www.w3.org/2000/svg">
<path d="M19.2893 1.11895L19.2894 1.11907C19.5247 5.11932 18.3175 8.36114 16.018 9.75258C15.2775 10.2028 14.4269 10.4395 13.5603 10.4367M19.2893 1.11895L13.5606 10.3367M19.2893 1.11895C19.281 0.98013 19.2221 0.849172 19.1238 0.750836C19.0254 0.652499 18.8945 0.593599 18.7557 0.585273L18.7556 0.585266C14.7552 0.349949 11.5141 1.55722 10.1212 3.85672L10.1212 3.85674C9.20217 5.37471 9.21507 7.22112 10.1279 8.97299M19.2893 1.11895L10.1279 8.97299M13.5603 10.4367L13.5606 10.3367M13.5603 10.4367C13.5604 10.4367 13.5605 10.4367 13.5606 10.4367V10.3367M13.5603 10.4367C12.699 10.4366 11.8093 10.2116 10.9435 9.76641M13.5606 10.3367C12.6934 10.3367 11.7942 10.1038 10.9184 9.64057M10.9435 9.76641C10.9603 9.74595 10.9773 9.72563 10.9945 9.70545L10.9184 9.64057M10.9435 9.76641C10.2946 10.5558 9.94045 11.5473 9.94343 12.5707L9.94343 12.571L9.94343 14.8749C9.94343 15.0258 9.88351 15.1704 9.77685 15.2771C9.67019 15.3838 9.52553 15.4437 9.37468 15.4437C9.22384 15.4437 9.07918 15.3838 8.97252 15.2771C8.86586 15.1704 8.80593 15.0258 8.80593 14.8749V12.6102M10.9435 9.76641C10.9195 9.7541 10.8956 9.74161 10.8717 9.72896L10.9184 9.64057M10.9184 9.64057L8.80593 12.6102M8.80593 12.6102L8.83533 12.6395L8.90593 12.5687M8.80593 12.6102L9.84343 12.571V14.8749C9.84343 14.9993 9.79405 15.1185 9.70614 15.2064C9.61823 15.2943 9.499 15.3437 9.37468 15.3437C9.25036 15.3437 9.13114 15.2943 9.04323 15.2064C8.95532 15.1185 8.90593 14.9993 8.90593 14.8749V12.5687M8.80593 12.6102V12.5687H8.90593M8.80593 12.6102L6.81169 10.622M8.90593 12.5687L6.83094 10.4999M6.83094 10.4999L6.87709 10.5887C6.85538 10.5999 6.83358 10.6111 6.81169 10.622M6.83094 10.4999C6.25148 10.8014 5.6091 10.962 4.95594 10.9687C4.32524 10.9696 3.70658 10.796 3.16844 10.4671C1.51609 9.46635 0.631718 7.14056 0.80203 4.24291C0.808708 4.12836 0.857171 4.02023 0.938235 3.93903C1.0193 3.85782 1.12734 3.80916 1.24187 3.80228C4.14031 3.63041 6.46609 4.51635 7.46687 6.16869C8.12468 7.25463 8.12859 8.57103 7.49187 9.82885M6.83094 10.4999L6.76033 10.5708L6.81169 10.622M6.81169 10.622C6.23553 10.9092 5.60136 11.0621 4.95695 11.0687L4.95608 11.0687C4.307 11.0697 3.67031 10.891 3.11646 10.5526M3.11646 10.5526C3.11652 10.5526 3.11657 10.5526 3.11663 10.5527L3.16842 10.4672L3.11629 10.5525C3.11634 10.5525 3.1164 10.5525 3.11646 10.5526ZM3.11646 10.5526C1.41812 9.52379 0.530927 7.15108 0.7022 4.23709C0.710302 4.0981 0.769103 3.96691 0.867462 3.86838C0.96582 3.76985 1.0969 3.71081 1.23588 3.70246L1.23595 3.70246C4.15096 3.5296 6.52371 4.41845 7.55241 6.11688M7.55241 6.11688C7.55241 6.11688 7.5524 6.11688 7.5524 6.11688L7.46977 6.16693L7.55241 6.11688ZM7.55241 6.11688C8.21913 7.21754 8.23091 8.54434 7.61342 9.809M7.61342 9.809L7.5626 9.75815L7.49187 9.82885M7.61342 9.809C7.60283 9.83069 7.59205 9.85236 7.58109 9.87401L7.49187 9.82885M7.61342 9.809L8.98317 11.1794M7.49187 9.82885L8.95526 11.293C8.96417 11.255 8.97347 11.2172 8.98317 11.1794M8.98317 11.1794C9.192 10.367 9.5833 9.61231 10.1279 8.97299M8.98317 11.1794L9.06556 11.2619C9.27208 10.4204 9.67737 9.64006 10.2481 8.98666M10.1279 8.97299L10.2067 3.90853C9.29812 5.40931 9.31765 7.24291 10.2481 8.98666M10.1279 8.97299C10.1427 8.95553 10.1577 8.93816 10.1728 8.92087L10.2481 8.98666M10.1279 8.97299C10.1384 8.99325 10.1491 9.0135 10.1599 9.03374L10.2481 8.98666M3.70628 9.57931L3.70615 9.57923C2.49471 8.84613 1.79066 7.10027 1.81688 4.81701C4.09992 4.78783 5.84352 5.4926 6.57663 6.70406L6.57667 6.70412C6.97817 7.36646 7.03511 8.14037 6.74472 8.94102L4.77666 6.97221L4.77665 6.9722C4.66994 6.86549 4.52521 6.80554 4.37429 6.80554C4.22338 6.80554 4.07865 6.86549 3.97194 6.9722C3.86523 7.07891 3.80528 7.22364 3.80528 7.37455C3.80528 7.52546 3.86523 7.67019 3.97194 7.7769L3.97196 7.77691L5.94311 9.74733C5.14241 10.0378 4.36854 9.98147 3.70628 9.57931ZM11.773 8.90555L16.0274 4.65191L16.0274 4.6519C16.0803 4.59906 16.1222 4.53633 16.1508 4.4673C16.1794 4.39826 16.1941 4.32427 16.1941 4.24955C16.1941 4.17483 16.1794 4.10083 16.1508 4.0318C16.1222 3.96276 16.0803 3.90003 16.0274 3.8472C15.9746 3.79436 15.9119 3.75245 15.8428 3.72385C15.7738 3.69525 15.6998 3.68054 15.6251 3.68054C15.5503 3.68054 15.4764 3.69525 15.4073 3.72385C15.3383 3.75245 15.2756 3.79436 15.2227 3.8472L10.9683 8.10162C10.3951 6.80244 10.4394 5.52811 11.0931 4.44623C12.1893 2.63426 14.8023 1.60909 18.1759 1.69867C18.2655 5.06922 17.2396 7.68376 15.4292 8.78079C14.3466 9.43591 13.0723 9.47889 11.773 8.90555Z" fill="#999999" stroke="#999999" stroke-width="0.2"/>
</svg>
